<svg id="레이어_1" data-name="레이어 1" xmlns="http://www.w3.org/2000/svg" viewBox="0 0 192 148"><defs><style>.cls-1{fill:#f58220;}.cls-2,.cls-3{fill:none;stroke:#f58220;stroke-miterlimit:10;}.cls-2{stroke-width:18.65px;}.cls-3{stroke-width:12px;}</style></defs><path class="cls-1" d="M183,191H9V67.73l.09-.64A74.36,74.36,0,0,1,23.58,34.71C34.54,20.45,56,3.46,96,3.46s61.46,17,72.42,31.25a74.36,74.36,0,0,1,14.45,32.38l.09.64ZM26.08,172.87H165.92V69.14C165,63.7,155.48,21.6,96,21.6S27.1,63.51,26.08,69.15Z"/><path class="cls-2" d="M13.89,102.94s76,20,164.22,0"/><path class="cls-3" d="M13.89,126.83s76,20,164.22,0"/><circle class="cls-1" cx="73" cy="70.38" r="6.7"/><circle class="cls-1" cx="119" cy="70.38" r="6.7"/></svg>