<svg id="레이어_1" data-name="레이어 1" xmlns="http://www.w3.org/2000/svg" viewBox="0 0 192 148"><defs><style>.cls-1{fill:#f58220;}.cls-2{fill:none;stroke:#f58220;stroke-miterlimit:10;}</style></defs><path class="cls-1" d="M183,191.16H9V67.88l.09-.63A74.37,74.37,0,0,1,23.58,34.86C34.54,20.61,56,3.62,96,3.62s61.46,17,72.42,31.24a74.37,74.37,0,0,1,14.45,32.39l.09.63ZM26.08,173H165.92V69.29C165,63.85,155.48,21.76,96,21.76S27.1,63.66,26.08,69.3Z"/><path class="cls-1" d="M71.44,92c0,5.09-3.5,3.93-8.59,3.93S53,97.05,53,92a9.21,9.21,0,0,1,18.42,0Z"/><path class="cls-1" d="M134.69,92c0,5.09-3.17,3.77-8.26,3.77S116.27,97.05,116.27,92a9.21,9.21,0,1,1,18.42,0Z"/><path class="cls-1" d="M103.65,74.61s13.77-12,23.6-10.26-3.92,2.79-11,6.89a88.22,88.22,0,0,1-14.33,6.47Z"/><path class="cls-1" d="M80.65,78.57S68.26,65.18,58.3,65.82s3.6,3.2,10.24,8a87.46,87.46,0,0,0,13.55,8Z"/><path class="cls-1" d="M114.65,78.4s-9.34,13.72-2.34,20.72,4,2.33,4,2.33S108.58,96.42,114.65,78.4Z"/><path class="cls-1" d="M71.44,87.61s8,11.2,3.39,13.69l-4.67,2.48A12,12,0,0,0,73.22,96,15.27,15.27,0,0,0,71.44,87.61Z"/><path class="cls-1" d="M95.4,118.51c-17.81,0-43.42-6.87-43.42-6.87s7.74,23.1,8.13,33.23c.24,6.55,5.55,8.52,10,13,9.69,0,34.3-1.2,34.3-1.2l12.73,1.2,10.31-1.58,5.12-11.51,7.4-33.1S113.21,118.51,95.4,118.51ZM126.7,135l-2.64-8.72v8.47h-5.87l-1.92-5.7-1.91,5.7-12.49-1.87L100.58,129v5.7H89.34L88.06,128l-1.53,6.72-15.09-2.89-1.66-6.16-1.35,6.16L60,130.57l-3.83-12.76L66.75,122c42.25,12.72,69.06-2.42,69.06-2.42l-2.3,13.53Z"/><path class="cls-2" d="M16.06,176V70.94S28.11,13.26,96,13.26s79.77,57.68,79.77,57.68V182.15"/></svg>